<svg xmlns="http://www.w3.org/2000/svg" width="618.341" height="195.661" viewBox="0 0 618.341 195.661"><path fill="#F90" d="M380.724 149.02c-35 25.797-85.73 39.56-129.406 39.56-61.243 0-116.376-22.65-158.088-60.324-3.277-2.962-.34-7 3.592-4.692 45.014 26.19 100.673 41.947 158.167 41.947 38.773 0 81.43-8.022 120.648-24.67 5.925-2.517 10.88 3.88 5.086 8.18"/><path fill="#F90" d="M395.275 132.372c-4.457-5.715-29.572-2.7-40.846-1.363-3.436.42-3.96-2.57-.866-4.72 20.003-14.078 52.827-10.016 56.654-5.297 3.828 4.746-.996 37.648-19.794 53.352-2.884 2.412-5.637 1.127-4.352-2.07 4.22-10.54 13.686-34.162 9.203-39.903"/><path fill="#221F1F" d="M355.215 26.9V13.217c0-2.07 1.573-3.46 3.46-3.46h61.27c1.966 0 3.54 1.415 3.54 3.46v11.72c-.027 1.965-1.68 4.535-4.615 8.6l-31.748 45.328c11.798-.29 24.25 1.468 34.947 7.498 2.41 1.363 3.066 3.356 3.25 5.322v14.603c0 1.992-2.202 4.326-4.51 3.12-18.85-9.884-43.887-10.96-64.73.104-2.122 1.155-4.35-1.153-4.35-3.145V92.497c0-2.23.024-6.03 2.253-9.412l36.782-52.75h-32.01c-1.967 0-3.54-1.39-3.54-3.434M131.717 112.29h-18.64c-1.783-.13-3.198-1.47-3.33-3.172V13.452c0-1.914 1.6-3.434 3.592-3.434h17.38c1.81.078 3.252 1.468 3.383 3.198V25.72h.34C138.98 13.636 147.5 8 158.984 8c11.667 0 18.955 5.637 24.198 17.723C187.69 13.636 197.94 8 208.927 8c7.813 0 16.36 3.225 21.577 10.46 5.9 8.05 4.693 19.74 4.693 29.992l-.026 60.377c0 1.914-1.6 3.46-3.592 3.46h-18.615c-1.86-.13-3.355-1.624-3.355-3.46V58.125c0-4.037.367-14.104-.524-17.932-1.39-6.423-5.558-8.232-10.96-8.232-4.508 0-9.227 3.016-11.14 7.84-1.915 4.824-1.73 12.898-1.73 18.325v50.704c0 1.913-1.6 3.46-3.593 3.46h-18.614c-1.887-.13-3.355-1.625-3.355-3.46l-.026-50.705c0-10.67 1.756-26.374-11.483-26.374-13.396 0-12.872 15.312-12.872 26.375v50.704c0 1.913-1.6 3.46-3.59 3.46M476.233 8c27.658 0 42.628 23.75 42.628 53.954 0 29.18-16.542 52.33-42.627 52.33-27.16 0-41.947-23.753-41.947-53.352C434.286 31.148 449.256 8 476.233 8m.157 19.53c-13.738 0-14.604 18.72-14.604 30.385 0 11.693-.183 36.65 14.446 36.65 14.445 0 15.127-20.133 15.127-32.403 0-8.075-.342-17.723-2.78-25.378-2.097-6.66-6.265-9.254-12.19-9.254M554.726 112.29h-18.562c-1.86-.13-3.356-1.625-3.356-3.46l-.026-95.692c.158-1.756 1.705-3.12 3.592-3.12h17.277c1.626.078 2.964 1.18 3.33 2.674v14.63h.34c5.22-13.083 12.533-19.323 25.405-19.323 8.363 0 16.517 3.014 21.76 11.272 4.877 7.655 4.877 20.528 4.877 29.782v60.22c-.21 1.678-1.757 3.016-3.592 3.016h-18.692c-1.704-.13-3.12-1.39-3.304-3.016v-51.96c0-10.46 1.206-25.772-11.666-25.772-4.536 0-8.704 3.042-10.775 7.656-2.622 5.846-2.963 11.667-2.963 18.116v51.516c-.027 1.913-1.652 3.46-3.644 3.46M339.564 94.75c-3.408-4.72-7.026-8.546-7.026-17.276v-29.05c0-12.294.865-23.594-8.205-32.062-7.157-6.87-19.008-9.28-28.08-9.28-17.722 0-37.54 6.605-41.684 28.523-.446 2.333 1.258 3.565 2.778 3.906l18.063 1.94c1.705-.077 2.937-1.73 3.252-3.407 1.546-7.55 7.865-11.194 14.97-11.194 3.854 0 8.206 1.415 10.46 4.85 2.622 3.827 2.28 9.07 2.28 13.5v2.412c-10.8 1.232-24.93 2.02-35.05 6.476-11.694 5.034-19.874 15.337-19.874 30.464 0 19.375 12.19 29.048 27.895 29.048 13.24 0 20.5-3.12 30.726-13.555 3.38 4.903 4.51 7.29 10.695 12.428 1.39.734 3.173.655 4.405-.445l.025.052c3.724-3.304 10.487-9.202 14.288-12.374 1.523-1.26 1.26-3.278.08-4.956zm-36.677-8.39c-2.963 5.245-7.682 8.47-12.9 8.47-7.156 0-11.35-5.454-11.35-13.503 0-15.887 14.235-18.77 27.736-18.77v4.037c0 7.26.184 13.318-3.486 19.767zM95.197 94.75c-3.408-4.72-7.026-8.546-7.026-17.276v-29.05c0-12.294.866-23.594-8.205-32.062-7.157-6.87-19.007-9.28-28.078-9.28-17.723 0-37.516 6.605-41.685 28.523-.42 2.333 1.26 3.565 2.78 3.906l18.088 1.94c1.678-.077 2.91-1.73 3.225-3.407 1.546-7.55 7.89-11.194 14.996-11.194 3.83 0 8.18 1.415 10.46 4.85 2.597 3.827 2.256 9.07 2.256 13.5v2.412c-10.8 1.232-24.932 2.02-35.052 6.476C15.287 59.122 7.08 69.425 7.08 84.552c0 19.375 12.218 29.048 27.896 29.048 13.266 0 20.5-3.12 30.726-13.555 3.408 4.903 4.51 7.29 10.696 12.428 1.39.734 3.172.655 4.404-.445l.053.052c3.723-3.304 10.487-9.202 14.288-12.374 1.522-1.26 1.26-3.278.054-4.956zM58.52 86.36c-2.963 5.245-7.656 8.47-12.9 8.47-7.157 0-11.325-5.454-11.325-13.503 0-15.887 14.235-18.77 27.71-18.77v4.037c0 7.26.185 13.318-3.486 19.767z"/></svg>